<svg xmlns="http://www.w3.org/2000/svg" viewBox="0 0 387.1 380.68"><defs><style>.cls-1{fill:none;}.cls-2{fill:#7baebe;}.cls-3{fill:#fff;}</style></defs><g id="圖層_2" data-name="圖層 2"><g id="圖層_1-2" data-name="圖層 1"><path class="cls-1" d="M193.94,129.85q-82.58,0-165.16-.1c-3.46,0-4,1-4,4.15q.15,108.87,0,217.73c0,3.78,1.07,4.41,4.58,4.41q164.22-.15,328.44,0c4,0,4.59-1.21,4.58-4.8q-.15-108.48,0-217c0-3.5-.61-4.55-4.38-4.54Q276,130,193.94,129.85Z"/><path class="cls-2" d="M387.08,57.66c0-15.32-10.59-25.82-25.92-25.92-11.59-.08-23.19.07-34.78-.08-2.7,0-3.25.78-3.23,3.36.14,13.35.1,26.71.06,40.07,0,14-6.45,22.25-20.11,25-8.08,1.65-16.41,2-24.11-1.56-11.18-5.13-16.48-14.34-16.58-26.52q-.15-18.51,0-37c0-2.54-.46-3.37-3.21-3.37q-64.08.15-128.15,0c-3,0-3.42.91-3.39,3.57.14,12,.07,23.95.06,35.92,0,18.86-11.45,30.1-30.41,30.27-12.31.11-21.71-4.51-27.52-15.62C67.5,81.31,67,76.45,67,71.5c0-12.1-.08-24.2.07-36.3,0-2.69-.46-3.61-3.43-3.56-12.22.2-24.44.07-36.67.08-13.32,0-21.47,5.73-26,18.2-.2.56-.16,1.28-.95,1.46v310c1,.15,1,1.07,1.21,1.71C5,374.05,12.74,379.8,24.26,380.54c1.25.08,2.51.09,3.77.09q165.57,0,331.14.05c11.3,0,20.12-3.79,25.41-14.16a25.22,25.22,0,0,0,2.52-11.7Q387.1,206.25,387.08,57.66Zm-24.73,293.6c0,3.59-.54,4.81-4.58,4.8q-164.22-.19-328.44,0c-3.51,0-4.59-.63-4.58-4.41q.2-108.87,0-217.73c0-3.17.55-4.15,4-4.15q82.57.21,165.16.1,82,0,164-.1c3.77,0,4.38,1,4.38,4.54Q362.2,242.79,362.35,351.26Z"/><path class="cls-3" d="M83.29,331.82c6.79,0,13.58,0,20.37,0,4.23,0,5.17-.93,5.18-5,0-11.7-.06-23.4,0-35.1,0-3.62-1.54-4.95-5-4.93-13.59.06-27.17,0-40.76,0-4.32,0-5.11.81-5.13,5,0,11.7.06,23.4-.05,35.1,0,3.57,1.42,5,4.94,4.93C69.7,331.74,76.5,331.82,83.29,331.82Z"/><path class="cls-3" d="M155.75,286.79c-6.67,0-13.34,0-20,0-4.34,0-5.11.79-5.12,5,0,11.7.07,23.4,0,35.1,0,3.58,1.39,5,4.91,4.94q20.56-.14,41.13,0c3.57,0,4.9-1.55,4.86-5.05q-.15-17.55,0-35.1c0-3.61-1.54-5-5-4.93C169.58,286.85,162.66,286.79,155.75,286.79Z"/><path class="cls-3" d="M228.31,331.82c6.92,0,13.83-.07,20.75,0,3.46,0,5-1.27,5-4.89q-.16-17.73,0-35.47c0-3.46-1.56-4.72-4.8-4.71q-20.76,0-41.51,0c-3.08,0-4.6,1.23-4.58,4.51q.14,17.93,0,35.85c0,3.42,1.45,4.75,4.76,4.71C214.72,331.76,221.52,331.82,228.31,331.82Z"/><path class="cls-3" d="M301.11,331.82c6.92,0,13.84-.05,20.75,0,3.3,0,4.82-1.3,4.79-4.72q-.13-17.73,0-35.47c0-3.36-1.32-4.88-4.66-4.87q-20.75,0-41.5,0c-3.28,0-4.77,1.28-4.74,4.74q.18,17.73,0,35.47c0,3.63,1.5,4.93,5,4.88C287.52,331.74,294.32,331.82,301.11,331.82Z"/><path class="cls-3" d="M301.14,160.76c-6.8,0-13.61.09-20.41,0-3.48-.06-5,1.17-5,4.84q.21,17.58,0,35.15c0,3.54,1.25,5,4.86,5,13.73-.11,27.46-.09,41.2,0,3.32,0,4.84-1.21,4.82-4.65q-.13-17.77,0-35.53c0-3.41-1.36-4.79-4.72-4.75C315,160.83,308.07,160.76,301.14,160.76Z"/><path class="cls-3" d="M228.56,268.65c6.93,0,13.86-.07,20.78,0,3.36,0,4.75-1.34,4.72-4.74q-.15-17.77,0-35.54c0-3.44-1.5-4.67-4.82-4.65-13.73.08-27.46.1-41.2,0-3.61,0-4.91,1.43-4.87,5q.17,17.56,0,35.15c0,3.66,1.5,4.9,5,4.84C215,268.56,221.75,268.65,228.56,268.65Z"/><path class="cls-3" d="M301.14,268.65c6.93,0,13.86-.07,20.79,0,3.36,0,4.75-1.34,4.72-4.75q-.15-17.76,0-35.53c0-3.44-1.5-4.67-4.82-4.65-13.74.08-27.47.1-41.2,0-3.61,0-4.9,1.42-4.86,5q.18,17.56,0,35.15c0,3.67,1.49,4.9,5,4.84C287.53,268.56,294.34,268.65,301.14,268.65Z"/><path class="cls-3" d="M83.53,223.78c-7.06,0-14.11.05-21.17,0-3,0-4.37,1.28-4.36,4.3q.07,18.15,0,36.29c0,3,1.33,4.32,4.33,4.31q21-.06,42,0c3.13,0,4.62-1.21,4.6-4.48q-.12-18,0-35.91c0-3.19-1.36-4.56-4.56-4.53C97.39,223.84,90.46,223.78,83.53,223.78Z"/><path class="cls-3" d="M156,223.78c-6.8,0-13.61.1-20.41,0-3.46-.08-5.08,1.09-5,4.77.12,11.84.1,23.69,0,35.53,0,3.16,1.13,4.65,4.4,4.63q21-.09,41.95,0c3.17,0,4.55-1.33,4.53-4.55-.07-11.84-.09-23.69,0-35.53,0-3.62-1.53-4.92-5-4.85C169.65,223.88,162.84,223.78,156,223.78Z"/><path class="cls-2" d="M115.42,45c0,9.2.11,18.4,0,27.59C115.24,82,109.86,88,101,89c-11.4,1.24-19-3-21.14-11.79a21.94,21.94,0,0,1-.45-4.86q0-27.4,0-54.81C79.4,6.86,85.61.82,96.38.71c4.07,0,8.07,0,11.67,2.31,5.31,3.34,7.36,8.36,7.37,14.42Q115.44,31.23,115.42,45Z"/><path class="cls-2" d="M310.79,44.42c0,9.33,0,18.65,0,28-.07,9.87-6.14,16-16,16.13-3.12,0-6.28.36-9.35-.72-5.88-2.07-9.38-6.09-10.33-12.26a31,31,0,0,1-.32-4.51c0-17.65,0-35.29,0-52.93,0-6.9,1.76-13,8.5-15.92,7-3,14.31-3.13,21,1,4.43,2.75,6.52,7.21,6.54,12.49C310.8,25.27,310.78,34.85,310.79,44.42Z"/><path class="cls-2" d="M83.29,331.82c-6.79,0-13.59-.08-20.38,0-3.52.06-5-1.36-4.94-4.93.11-11.7,0-23.4.05-35.1,0-4.22.81-5,5.13-5,13.59,0,27.17,0,40.76,0,3.44,0,5,1.31,5,4.93-.11,11.7,0,23.4,0,35.1,0,4.09-1,5-5.18,5C96.87,331.85,90.08,331.82,83.29,331.82Z"/><path class="cls-2" d="M155.75,286.79c6.91,0,13.83.06,20.75,0,3.45,0,5,1.32,5,4.93q-.18,17.55,0,35.1c0,3.5-1.29,5.07-4.86,5.05q-20.56-.11-41.13,0c-3.52,0-5-1.36-4.91-4.94.12-11.7,0-23.4,0-35.1,0-4.23.78-5,5.12-5C142.41,286.76,149.08,286.79,155.75,286.79Z"/><path class="cls-2" d="M228.31,331.82c-6.79,0-13.59-.06-20.38,0-3.31,0-4.79-1.29-4.76-4.71q.14-17.92,0-35.85c0-3.28,1.5-4.51,4.58-4.51q20.76,0,41.51,0c3.24,0,4.83,1.25,4.8,4.71q-.13,17.73,0,35.47c0,3.62-1.55,4.94-5,4.89C242.14,331.75,235.23,331.82,228.31,331.82Z"/><path class="cls-2" d="M301.11,331.82c-6.79,0-13.59-.08-20.38,0-3.47.05-5-1.25-5-4.88q.19-17.73,0-35.47c0-3.46,1.46-4.75,4.74-4.74q20.75.08,41.5,0c3.34,0,4.69,1.51,4.66,4.87q-.15,17.73,0,35.47c0,3.42-1.49,4.76-4.79,4.72C315,331.77,308,331.82,301.11,331.82Z"/><path class="cls-2" d="M228.58,160.76c6.93,0,13.86.07,20.79,0,3.38,0,4.72,1.39,4.69,4.77q-.15,17.58,0,35.15c0,3.5-1.22,5-4.85,5q-20.6-.15-41.19,0c-3.64,0-4.89-1.48-4.85-5q.17-17.58,0-35.16c0-3.68,1.55-4.87,5-4.81C215,160.85,221.78,160.76,228.58,160.76Z"/><path class="cls-2" d="M301.14,160.76c6.93,0,13.86.07,20.79,0,3.36,0,4.75,1.34,4.72,4.75q-.15,17.76,0,35.53c0,3.44-1.5,4.67-4.82,4.65-13.74-.08-27.47-.1-41.2,0-3.61,0-4.9-1.42-4.86-5q.18-17.57,0-35.15c0-3.67,1.49-4.9,5-4.84C287.53,160.85,294.34,160.76,301.14,160.76Z"/><path class="cls-2" d="M228.56,268.65c-6.81,0-13.61-.09-20.41,0-3.49.06-5-1.18-5-4.84q.19-17.58,0-35.15c0-3.53,1.26-5,4.87-5,13.74.11,27.47.09,41.2,0,3.32,0,4.84,1.21,4.82,4.65q-.13,17.78,0,35.54c0,3.4-1.36,4.78-4.72,4.74C242.42,268.58,235.49,268.65,228.56,268.65Z"/><path class="cls-2" d="M301.14,268.65c-6.8,0-13.61-.09-20.41,0-3.48.06-5-1.17-5-4.84q.21-17.58,0-35.15c0-3.54,1.25-5,4.86-5,13.73.11,27.46.09,41.2,0,3.32,0,4.84,1.21,4.82,4.65q-.13,17.78,0,35.53c0,3.41-1.36,4.79-4.72,4.75C315,268.58,308.07,268.65,301.14,268.65Z"/><path class="cls-2" d="M83.53,223.78c6.93,0,13.86.06,20.78,0,3.2,0,4.58,1.34,4.56,4.53q-.09,18,0,35.91c0,3.27-1.47,4.49-4.6,4.48q-21-.07-41.95,0c-3,0-4.35-1.26-4.33-4.31q.09-18.15,0-36.29c0-3,1.34-4.33,4.36-4.3C69.42,223.83,76.47,223.78,83.53,223.78Z"/><path class="cls-2" d="M156,223.78c6.8,0,13.61.1,20.41,0,3.5-.07,5.06,1.23,5,4.85-.1,11.84-.08,23.69,0,35.53,0,3.22-1.36,4.56-4.53,4.55q-21-.07-41.95,0c-3.27,0-4.42-1.47-4.4-4.63.09-11.84.11-23.69,0-35.53,0-3.68,1.59-4.85,5-4.77C142.43,223.88,149.24,223.78,156,223.78Z"/></g></g></svg>