<svg xmlns="http://www.w3.org/2000/svg" xmlns:xlink="http://www.w3.org/1999/xlink" width="30" height="30" viewBox="0 0 30 30">
  <defs>
    <clipPath id="clip-linkArrow_default">
      <rect width="30" height="30"/>
    </clipPath>
  </defs>
  <g id="linkArrow_default" clip-path="url(#clip-linkArrow_default)">
    <g id="Group_14" data-name="Group 14" transform="translate(14 68)">
      <path id="arrow-right-circle" d="M62,47a15,15,0,1,0-4.394,10.606A15,15,0,0,0,62,47Zm-2.727,0a12.272,12.272,0,1,1-3.6-8.678A12.272,12.272,0,0,1,59.273,47ZM41.545,48.364h7.617L46.036,51.49a1.363,1.363,0,0,0,1.928,1.928l5.455-5.455a1.35,1.35,0,0,0,0-1.928L47.964,40.58a1.363,1.363,0,0,0-1.928,1.928l3.127,3.127H41.545a1.364,1.364,0,0,0,0,2.727Z" transform="translate(-46 -99.997)" fill="#e8cb89"/>
    </g>
  </g>
</svg>
