<svg xmlns="http://www.w3.org/2000/svg" xmlns:xlink="http://www.w3.org/1999/xlink" width="30" height="30" viewBox="0 0 30 30">
  <defs>
    <clipPath id="clip-transportation">
      <rect width="30" height="30"/>
    </clipPath>
  </defs>
  <g id="transportation" clip-path="url(#clip-transportation)">
    <path id="directions_car" d="M99.359,170.353H122.64l-2.5-7.39H101.859Zm20.781,8.16a2.42,2.42,0,0,0,1.758-.731,2.392,2.392,0,0,0,0-3.464,2.478,2.478,0,0,0-3.516,0,2.392,2.392,0,0,0,0,3.464,2.42,2.42,0,0,0,1.759.731Zm-18.281,0a2.42,2.42,0,0,0,1.758-.731,2.392,2.392,0,0,0,0-3.464,2.478,2.478,0,0,0-3.516,0,2.392,2.392,0,0,0,0,3.464,2.42,2.42,0,0,0,1.758.731Zm20.7-16.4L126,171.97v13.163a1.555,1.555,0,0,1-.469,1.155,1.6,1.6,0,0,1-1.172.462H122.64a1.6,1.6,0,0,1-1.172-.462,1.555,1.555,0,0,1-.469-1.155V183.44H101v1.694a1.555,1.555,0,0,1-.469,1.155,1.6,1.6,0,0,1-1.172.462H97.641a1.6,1.6,0,0,1-1.172-.462A1.555,1.555,0,0,1,96,185.133V171.97l3.438-9.853a2.221,2.221,0,0,1,2.422-1.617h18.281a2.221,2.221,0,0,1,2.422,1.616Z" transform="translate(-96 -157.625)" fill="#7baebe"/>
  </g>
</svg>
